<?xml version="1.0" encoding="utf-8"?>
<!-- Generator: Adobe Illustrator 24.0.0, SVG Export Plug-In . SVG Version: 6.00 Build 0)  -->
<svg version="1.1" id="Calque_1" xmlns="http://www.w3.org/2000/svg" xmlns:xlink="http://www.w3.org/1999/xlink" x="0px" y="0px"
	 viewBox="0 0 512 512" style="enable-background:new 0 0 512 512;" xml:space="preserve">
<style type="text/css">
	.st0{fill:#FFFFFF;}
</style>
<path class="st0" d="M218.7,320c8.8,0,16-7.2,16-16v-96c0-8.8-7.2-16-16-16h-16c-8.8,0-16,7.2-16,16s7.2,16,16,16v80
	C202.7,312.8,209.8,320,218.7,320z"/>
<path class="st0" d="M325.3,320c20.6,0,37.3-16.7,37.3-37.3v-53.3c0-20.6-16.7-37.3-37.3-37.3h-10.7c-20.6,0-37.3,16.7-37.3,37.3
	v53.3c0,20.6,16.7,37.3,37.3,37.3H325.3z M309.3,282.7v-53.3c0-2.9,2.4-5.3,5.3-5.3h10.7c2.9,0,5.3,2.4,5.3,5.3v53.3
	c0,2.9-2.4,5.3-5.3,5.3h-10.7C311.7,288,309.3,285.6,309.3,282.7z"/>
<path class="st0" d="M256,0C167,0,81.4,45,32,112.7V58.7c0-8.8-7.2-16-16-16s-16,7.2-16,16V176c0,0.1,0.1,0.3,0.1,0.4
	c0,1.2,0.4,2.3,0.7,3.5c0.2,0.9,0.3,1.8,0.7,2.6c0.4,0.9,1.1,1.7,1.8,2.6c0.6,0.8,1,1.7,1.8,2.4c0.6,0.6,1.5,1,2.2,1.5
	c1,0.7,1.9,1.4,3.1,1.8c0.1,0.1,0.2,0.2,0.4,0.2c0.9,0.3,1.8,0.3,2.7,0.4c0.9,0.2,1.7,0.5,2.7,0.5h117.2c8.8,0,16-7.2,16-16
	s-7.2-16-16-16H40.4C78.2,84.7,165,32,256,32c123.5,0,224,100.5,224,224S379.5,480,256,480c-59.9,0-116.1-23.3-158.3-65.7
	c-6.2-6.3-16.4-6.3-22.6,0c-6.3,6.2-6.3,16.4,0,22.6C123.2,485.3,187.5,512,256,512c141.2,0,256-114.8,256-256S397.2,0,256,0z"/>
</svg>
