<?xml version="1.0" encoding="utf-8"?>
<!-- Generator: Adobe Illustrator 24.0.0, SVG Export Plug-In . SVG Version: 6.00 Build 0)  -->
<svg version="1.1" id="Calque_1" xmlns="http://www.w3.org/2000/svg" xmlns:xlink="http://www.w3.org/1999/xlink" x="0px" y="0px"
	 viewBox="0 0 512 512" style="enable-background:new 0 0 512 512;" xml:space="preserve">
<style type="text/css">
	.st0{fill:#FFFFFF;}
</style>
<path class="st0" d="M218.7,320c8.8,0,16-7.2,16-16v-96c0-8.8-7.2-16-16-16h-16c-8.8,0-16,7.2-16,16s7.2,16,16,16v80
	C202.7,312.8,209.8,320,218.7,320z"/>
<path class="st0" d="M325.3,320c20.6,0,37.3-16.7,37.3-37.3v-53.3c0-20.6-16.7-37.3-37.3-37.3h-10.7c-20.6,0-37.3,16.7-37.3,37.3
	v53.3c0,20.6,16.7,37.3,37.3,37.3H325.3z M309.3,282.7v-53.3c0-2.9,2.4-5.3,5.3-5.3h10.7c2.9,0,5.3,2.4,5.3,5.3v53.3
	c0,2.9-2.4,5.3-5.3,5.3h-10.7C311.7,288,309.3,285.6,309.3,282.7z"/>
<path class="st0" d="M0,256c0,141.2,114.8,256,256,256c68.5,0,132.8-26.7,180.9-75.1c6.3-6.3,6.2-16.4,0-22.6
	c-6.3-6.2-16.4-6.2-22.6,0C372.1,456.7,315.9,480,256,480C132.5,480,32,379.5,32,256S132.5,32,256,32c91,0,177.8,52.7,215.6,128
	h-92.8c-8.8,0-16,7.2-16,16s7.2,16,16,16H496c0.9,0,1.8-0.4,2.7-0.5c0.9-0.2,1.8-0.1,2.7-0.4c0.1,0,0.2-0.1,0.4-0.2
	c1.1-0.4,2.1-1.2,3.1-1.8c0.7-0.5,1.6-0.9,2.2-1.5c0.7-0.7,1.2-1.6,1.8-2.4c0.6-0.9,1.3-1.6,1.8-2.6c0.4-0.8,0.4-1.7,0.7-2.6
	c0.3-1.2,0.7-2.3,0.7-3.5c0-0.2,0.1-0.3,0.1-0.4V58.7c0-8.8-7.2-16-16-16s-16,7.2-16,16v54.1C430.6,45,345,0,256,0
	C114.8,0,0,114.8,0,256z"/>
</svg>
